<svg id="Capa_1" data-name="Capa 1" xmlns="http://www.w3.org/2000/svg" viewBox="0 0 793.75 299.49"><defs><style>.cls-1{fill:#434547;}.cls-2{fill:#bf815e;}.cls-3{fill:#dc968a;}.cls-4{fill:#c89581;}</style></defs><title>logo pa calendariRECI2</title><g id="Capa_2" data-name="Capa 2"><g id="Capa_1-2" data-name="Capa 1-2"><path class="cls-1" d="M132.94,287.4a137.14,137.14,0,0,1-94.75-42.5,139.85,139.85,0,0,1-16.48-21A136.28,136.28,0,0,1,9.56,200.08,138.92,138.92,0,0,1,88.07,20.3a141.18,141.18,0,0,1,54.22-9.73,139.4,139.4,0,0,1,125.07,92.78,137.86,137.86,0,0,1-134.42,184m0-1.14a135.84,135.84,0,0,0,26.26-1.73A131.14,131.14,0,0,0,190.84,34.69a128.16,128.16,0,0,0-24-7.72,133,133,0,0,0-25-2.9,128.82,128.82,0,0,0-49.62,7.27A131.14,131.14,0,0,0,80.47,273.47a132.21,132.21,0,0,0,26.42,9.29,135.75,135.75,0,0,0,26.09,3.5" transform="translate(-0.01 0)"/><path class="cls-2" d="M6.17,281.25a8,8,0,0,0,1.77-.72,16.18,16.18,0,0,0,1.62-.93c1-.65,2.07-1.33,3-2.06A70.41,70.41,0,0,0,18.2,273a97.4,97.4,0,0,0,9.64-9.74A105,105,0,0,0,42,242.2q2.78-5.44,5-11.15c.72-1.89,1.41-3.79,2-5.72l1-2.94c.33-1,.65-2.06,1-3.12,2.61-8.48,5.29-17.64,8.29-26.82S65.57,174,69.54,164.74a199.14,199.14,0,0,1,14-27.21,134.8,134.8,0,0,1,9.07-12.91,101.14,101.14,0,0,1,10.93-11.83,67.38,67.38,0,0,1,13.25-9.63,38,38,0,0,1,15.38-4.83,65.63,65.63,0,0,0-7.92,12.43A113,113,0,0,0,119,123.5c-3.06,8.6-5.48,17.39-7.9,26.28-4.75,17.83-9.3,36-15.23,54.56-.75,2.32-1.54,4.63-2.32,7s-1.65,4.66-2.5,7-1.8,4.7-2.74,7.08-2,4.76-3.1,7.17c-.56,1.2-1.13,2.41-1.73,3.64l-.45.91-.48,1c-.33.63-.65,1.26-1,1.89-.67,1.25-1.38,2.48-2.1,3.71s-1.5,2.43-2.28,3.62A90.45,90.45,0,0,1,66.4,260.65a77.91,77.91,0,0,1-28,18.67,63.11,63.11,0,0,1-16.07,3.84,48.94,48.94,0,0,1-8.21.11,32.71,32.71,0,0,1-4.07-.59c-.68-.15-1.34-.33-2-.54a7.34,7.34,0,0,1-1.85-.89" transform="translate(-0.01 0)"/><path class="cls-3" d="M140.38,198.77c.58-.4,1.13-.8,1.66-1.23s1.05-.84,1.56-1.29c1-.87,2-1.72,3-2.64q2.88-2.67,5.53-5.41c3.54-3.67,6.82-7.38,9.91-11.2a80.65,80.65,0,0,0,8.09-12.2,111.79,111.79,0,0,0,6.08-13.15c1.75-4.48,3.32-9,4.84-13.41l1.09-3.15,1-3.05,2.1-6.54c1.44-4.5,3-9.21,4.62-14s3.48-9.65,5.31-14.58c3.72-9.83,7.8-19.84,12.61-29.71a190.22,190.22,0,0,1,17-28.8,132.8,132.8,0,0,1,10.84-13.17,103,103,0,0,1,12.75-11.5C257.48,6.88,268,1.67,278.83,0a118.09,118.09,0,0,0-10.5,11.85,110.77,110.77,0,0,0-8.28,12.53,170.28,170.28,0,0,0-12,26.68c-3.33,9.18-6.17,18.61-8.87,28.23s-5.26,19.42-8,29.42-5.75,20.22-10.48,30.65c-1.19,2.61-2.48,5.25-4,7.9q-1.11,2-2.35,4c-.43.66-.86,1.38-1.29,2l-1.3,1.77a110.73,110.73,0,0,1-11.6,13.25,152.15,152.15,0,0,1-13.27,11.45,162,162,0,0,1-14.26,9.71,72.15,72.15,0,0,1-15.45,7.13,53.29,53.29,0,0,1-8.27,2c-1.41.2-2.82.36-4.24.42a20.16,20.16,0,0,1-4.25-.2" transform="translate(-0.01 0)"/><path class="cls-4" d="M94.3,208.83a7.26,7.26,0,0,1,1.61-.15,14.09,14.09,0,0,1,1.59.06c1,.08,2.07.19,3.1.36,2,.28,4,.73,6,1.19a84,84,0,0,1,11.07,3.56,89.13,89.13,0,0,1,18.9,10.32,102.56,102.56,0,0,1,8.1,6.44c1.28,1.14,2.55,2.3,3.78,3.5l1.87,1.84c.65.63,1.3,1.29,2,2,5.28,5.36,10.89,11.2,16.74,16.92s12,11.42,18.64,16.8a168.92,168.92,0,0,0,21.22,15,115.94,115.94,0,0,0,11.87,6.15,87.55,87.55,0,0,0,12.86,4.61,57,57,0,0,0,13.74,2.05,32.24,32.24,0,0,0,13.4-2.48A55.39,55.39,0,0,1,250,290.78a94.87,94.87,0,0,1-9-7.5c-5.71-5.28-11-10.93-16.29-16.68-10.56-11.54-21.11-23.44-32.84-35.06-1.46-1.45-3-2.88-4.47-4.33s-3.07-2.86-4.63-4.3-3.2-2.83-4.84-4.25-3.37-2.8-5.14-4.18c-.89-.69-1.8-1.37-2.73-2.06l-.69-.51-.74-.53c-.49-.34-1-.69-1.49-1-1-.68-2-1.33-3-2s-2.08-1.24-3.14-1.83a76,76,0,0,0-13.3-5.84,66.22,66.22,0,0,0-28.39-3.06,53.64,53.64,0,0,0-13.6,3.42,41.51,41.51,0,0,0-6.21,3.13,28.4,28.4,0,0,0-2.84,2c-.44.38-.88.77-1.29,1.19a6.27,6.27,0,0,0-1,1.4" transform="translate(-0.01 0)"/><path class="cls-1" d="M368.76,147l-3.5-5.44q-11.44-17.85-18.53-28.14a113.82,113.82,0,0,1-13.49,6.5q0,23.49.19,27.17H323.24q.19-2.13.2-34t-.2-34h10.19q-.19,2.23-.19,34.45a62.69,62.69,0,0,0,21-14.22A38.19,38.19,0,0,0,364.78,79.2h10.77a40.21,40.21,0,0,1-7,15.57,62.09,62.09,0,0,1-14,13.74q6,9.31,12.47,18.63T381,147Z" transform="translate(-0.01 0)"/><path class="cls-1" d="M437.16,110.06q13.2,30.38,16.5,37.07H441.34q-3.21-7.75-6-15.23l-1.07-2.72q-5-.1-15.14-.1t-15.14.1q-4.07,10.19-6.89,17.95H388l4.08-9.51q2.13-5.15,9.65-22.9t13-31.35A2.54,2.54,0,0,1,413,81.92a4.36,4.36,0,0,1-.48-2.72h9.41c1.16,0,1.91.35,2.23,1.07Zm-5.24,12.42-5.53-13.39c-.32-.84-1.41-3.45-3.25-7.81s-3.22-7.94-4.12-10.73q-2.82,8.16-8.93,23-3.6,8.64-3.69,8.93Z" transform="translate(-0.01 0)"/><path class="cls-1" d="M502.66,147.13q-.78-1.74-6.8-11.69t-8.25-13.35c-.77.07-1.91.1-3.39.1H470.73q0,20.48.19,24.94H460.73q.19-5.24.19-30.08,0-33.78-.19-37.85h22.13A39,39,0,0,1,498.29,82a21.56,21.56,0,0,1,9.7,7.72,20.15,20.15,0,0,1,3.3,11.45A19.3,19.3,0,0,1,507.61,113,21.17,21.17,0,0,1,497,120.25q3.69,6,9.65,15.58t7.33,11.3Zm-19.32-31.34q8.45,0,13-3.55t4.56-10.53q0-7.67-4.76-11.64t-13.78-4h-7.18a9.71,9.71,0,0,0-3.3.39A1.86,1.86,0,0,0,470.73,88v26.88a30,30,0,0,0,7.66.88Z" transform="translate(-0.01 0)"/><path class="cls-1" d="M535,143.54A33.43,33.43,0,0,1,522.42,131a35.1,35.1,0,0,1-4.61-17.9A36.09,36.09,0,0,1,522.32,95a32,32,0,0,1,12.37-12.37,35.16,35.16,0,0,1,17.57-4.42,34.54,34.54,0,0,1,17.42,4.51A33.29,33.29,0,0,1,582.2,95.16a37.86,37.86,0,0,1,.19,35.86,32.3,32.3,0,0,1-12.27,12.52,36.13,36.13,0,0,1-35.14,0m29.94-5a21.9,21.9,0,0,0,8.11-8.88,28.22,28.22,0,0,0,2.91-13,41.84,41.84,0,0,0-3.11-16.5,26.79,26.79,0,0,0-8.63-11.35,20.7,20.7,0,0,0-12.62-4.08,23,23,0,0,0-11.94,3.11,21.3,21.3,0,0,0-8.15,8.68A26.86,26.86,0,0,0,528.58,109a43.17,43.17,0,0,0,3.11,16.84,27.47,27.47,0,0,0,8.68,11.65A20.49,20.49,0,0,0,553,141.7a22.12,22.12,0,0,0,11.89-3.21" transform="translate(-0.01 0)"/><path class="cls-1" d="M594.85,147.08q.2-2.13.19-34t-.19-34H605q-.19,1.85-.2,30.08,0,24,.1,30.48a30.66,30.66,0,0,0,7.08.77q21.64,0,25.53-.38v7Z" transform="translate(-0.01 0)"/><path class="cls-1" d="M373.9,171.83q-10.17-.29-20.34-.29l-.09,26.25q0,18.71.19,35H343.49q.19-7.66.19-32.55,0-20.53-.1-28.68-10.17,0-20.34.29V165H373.9Z" transform="translate(-0.01 0)"/><path class="cls-1" d="M412.81,195.71q13.17,30.33,16.47,37H417q-3.21-7.76-6-15.21l-1.07-2.71q-5-.1-15.11-.1t-15.11.1q-4.06,10.17-6.88,17.92h-9.1l4.07-9.5q2.11-5.13,9.63-22.86t12.94-31.29a2.54,2.54,0,0,1-1.75-1.45,4.33,4.33,0,0,1-.48-2.71h9.39c1.17,0,1.91.35,2.23,1.06Zm-5.23,12.4-5.52-13.37q-.49-1.26-3.25-7.8t-4.12-10.7q-2.81,8.13-8.91,23-3.58,8.63-3.68,8.91Z" transform="translate(-0.01 0)"/><path class="cls-1" d="M437.63,232.76q.19-2.13.19-33.9T437.63,165H447.8q-.19,1.84-.19,30,0,23.94.09,30.42a30.67,30.67,0,0,0,7.08.78q21.6,0,25.47-.39v7Z" transform="translate(-0.01 0)"/><path class="cls-1" d="M537,195.86q13.17,30.31,16.46,37h-12.3q-3.2-7.74-6-15.21l-1.07-2.71q-5-.09-15.11-.1t-15.11.1q-4.08,10.17-6.88,17.92h-9.11l4.07-9.49q2.13-5.13,9.64-22.86t12.93-31.29a2.56,2.56,0,0,1-1.74-1.46,4.41,4.41,0,0,1-.49-2.71h9.4a2.21,2.21,0,0,1,2.23,1.07Zm-5.24,12.4-5.52-13.37q-.48-1.26-3.24-7.8t-4.12-10.7q-2.8,8.13-8.91,23-3.59,8.63-3.68,8.92Z" transform="translate(-0.01 0)"/><path class="cls-1" d="M555.94,165l6.1,15.6,15.59,39.91q5.34-14.14,12.21-31.77Q597.49,169.11,599,165h9.2q-2.81,5.53-10.85,24.9t-17,43H573q-6.87-16.56-17-40t-12.4-28Z" transform="translate(-0.01 0)"/><path class="cls-1" d="M648.45,226c5.62-.09,9.39-.21,11.33-.34v7.17H614.64q.2-2.13.19-33.9T614.64,165h43.59v7.07q-9.88-.37-30.9-.38c-1.55,0-2.42.42-2.62,1.26q-.09,5.52-.09,21.6h4.74q7.27,0,22.19-.39v7.36q-8.91-.28-26.93-.29,0,18.12.09,24.22a33.08,33.08,0,0,0,8,.68q7.27,0,15.7-.15" transform="translate(-0.01 0)"/><path class="cls-1" d="M709.67,232.86q-.78-1.74-6.78-11.67t-8.24-13.32c-.77.06-1.9.1-3.39.1H677.8q0,20.43.19,24.89H667.82q.2-5.24.19-30,0-33.71-.19-37.78h22.09a38.63,38.63,0,0,1,15.4,2.76,21.55,21.55,0,0,1,9.69,7.7A20.16,20.16,0,0,1,718.29,187a19.21,19.21,0,0,1-3.68,11.82A21.13,21.13,0,0,1,704.05,206q3.68,6,9.64,15.55T721,232.86Zm-19.28-31.29q8.43,0,13-3.53T708,187.53q0-7.65-4.75-11.63t-13.76-4h-7.17a9.65,9.65,0,0,0-3.29.39,1.85,1.85,0,0,0-1.16,1.55V200.7a29.85,29.85,0,0,0,7.65.87Z" transform="translate(-0.01 0)"/><path class="cls-1" d="M777.3,195.86q13.17,30.31,16.46,37h-12.3q-3.19-7.74-6-15.21l-1.07-2.71q-5-.09-15.11-.1t-15.11.1q-4.08,10.17-6.88,17.92h-9.11l4.07-9.49q2.13-5.13,9.64-22.86t12.93-31.29a2.56,2.56,0,0,1-1.74-1.46,4.41,4.41,0,0,1-.49-2.71H762a2.21,2.21,0,0,1,2.23,1.07Zm-5.23,12.4-5.53-13.37q-.48-1.26-3.24-7.8t-4.12-10.7q-2.8,8.13-8.91,23-3.59,8.63-3.68,8.92Z" transform="translate(-0.01 0)"/><path class="cls-1" d="M342.28,258.05c0,6.95-4.37,12.35-12.93,12.35h-5.91a.5.5,0,0,1-.53-.47V246.24a.5.5,0,0,1,.47-.53h6C337.91,245.71,342.28,251.09,342.28,258.05Zm-3.35,0c0-5.82-3.17-9.34-9.58-9.34h-3.14V267.4h3.14C335.76,267.4,338.93,263.86,338.93,258.05Z" transform="translate(-0.01 0)"/><path class="cls-1" d="M370.11,267.93v1.94a.5.5,0,0,1-.47.53H354.5a.5.5,0,0,1-.53-.47V246.24a.5.5,0,0,1,.47-.53H369.5a.5.5,0,0,1,.53.47v2a.5.5,0,0,1-.47.53h-12.3V256h11.35a.5.5,0,0,1,.53.47v2a.5.5,0,0,1-.48.52h-11.4v8.38h12.32a.51.51,0,0,1,.53.49Z" transform="translate(-0.01 0)"/><path class="cls-1" d="M400.21,269.78c.19.38,0,.62-.39.62h-2.33a.66.66,0,0,1-.62-.39l-4.55-8.8h-6.49v8.66a.5.5,0,0,1-.47.53h-2.3a.5.5,0,0,1-.53-.47V246.24a.5.5,0,0,1,.47-.53h8.81c6.51,0,8.89,2.75,8.89,7.74,0,3.92-1.46,6.46-5.22,7.37Zm-14.38-11.57H392c3.28,0,5.47-.88,5.47-4.76s-2.19-4.74-5.47-4.74h-6.21Z" transform="translate(-0.01 0)"/><path class="cls-1" d="M437.54,246.24v23.63a.5.5,0,0,1-.47.53h-2.3a.5.5,0,0,1-.53-.47V252l-7.56,18a.59.59,0,0,1-.6.4h-2.19a.58.58,0,0,1-.6-.4l-7.52-17.91v17.78a.5.5,0,0,1-.47.53H413a.5.5,0,0,1-.53-.47V246.24a.5.5,0,0,1,.47-.53h2.86a.64.64,0,0,1,.64.35L425,266.68l8.52-20.62a.63.63,0,0,1,.63-.35H437a.5.5,0,0,1,.54.46Z" transform="translate(-0.01 0)"/><path class="cls-1" d="M469.92,270.4h-2.28a.57.57,0,0,1-.6-.42l-1.75-4.75H454L452.22,270a.56.56,0,0,1-.6.42h-2.27c-.39,0-.57-.24-.43-.6l9-23.67a.65.65,0,0,1,.63-.42h2.22a.66.66,0,0,1,.64.42l9,23.67A.45.45,0,0,1,469.92,270.4Zm-5.7-8.08-4.59-12.49-4.58,12.49Z" transform="translate(-0.01 0)"/><path class="cls-1" d="M496.93,246.24v1.94a.5.5,0,0,1-.47.53H489v21.16a.5.5,0,0,1-.47.53h-2.3a.5.5,0,0,1-.53-.47V248.71h-7.39a.5.5,0,0,1-.53-.47v-2a.5.5,0,0,1,.47-.53H496.4a.5.5,0,0,1,.53.47Z" transform="translate(-0.01 0)"/><path class="cls-1" d="M506.68,258.16a12.64,12.64,0,1,1,12.64,12.7,12.64,12.64,0,0,1-12.64-12.7Zm22,0a8.13,8.13,0,1,0,0,.16v-.16Z" transform="translate(-0.01 0)"/><path class="cls-1" d="M560.22,267.93v1.94a.5.5,0,0,1-.47.53h-15a.5.5,0,0,1-.52-.48V246.24a.5.5,0,0,1,.47-.53H547a.5.5,0,0,1,.53.47V267.4h12.14a.5.5,0,0,1,.55.45Z" transform="translate(-0.01 0)"/><path class="cls-1" d="M570.44,258.16a12.64,12.64,0,1,1,12.65,12.7,12.64,12.64,0,0,1-12.65-12.7Zm22,0a8.18,8.18,0,1,0,0,.17v-.17Zm-5.75-19.26-2.11,4.44a.58.58,0,0,1-.6.43h-1.7c-.39,0-.6-.21-.42-.6l2.12-4.45a.59.59,0,0,1,.6-.42h1.69c.42,0,.63.21.45.6Z" transform="translate(-0.01 0)"/><path class="cls-1" d="M631.15,257.91v1.4c0,6.51-4.27,11.55-11.29,11.55a12.72,12.72,0,0,1-.06-25.43,12.09,12.09,0,0,1,8.42,3.36.46.46,0,0,1,.1.64l-.1.1-1.41,1.5a.49.49,0,0,1-.68.06l-.06-.06a9.32,9.32,0,0,0-6.28-2.39,9.5,9.5,0,0,0,.06,19c4.72,0,8-3.05,8.11-7.3h-7.78a.5.5,0,0,1-.53-.47v-1.95a.5.5,0,0,1,.47-.53h10.49a.51.51,0,0,1,.54.48Z" transform="translate(-0.01 0)"/><path class="cls-1" d="M661.58,270.4H659.3a.56.56,0,0,1-.59-.42L657,265.23H645.63L643.89,270a.59.59,0,0,1-.6.42H641c-.38,0-.56-.24-.42-.6l9-23.67a.66.66,0,0,1,.64-.42h2.22a.65.65,0,0,1,.63.42l9,23.67C662.14,270.16,662,270.4,661.58,270.4Zm-5.7-8.08-4.58-12.49-4.59,12.49Z" transform="translate(-0.01 0)"/><path class="cls-1" d="M341.06,56.26c0,6.57-4.13,11.67-12.22,11.67h-5.59a.47.47,0,0,1-.5-.44V45.08a.47.47,0,0,1,.44-.5h5.65C336.93,44.58,341.06,49.67,341.06,56.26Zm-3.17,0c0-5.51-3-8.84-9.05-8.84h-3V65.1h3c6.05,0,9.05-3.36,9.05-8.84Z" transform="translate(-0.01 0)"/><path class="cls-1" d="M362.19,67.35c.18.35,0,.58-.37.58h-2.2a.63.63,0,0,1-.59-.36l-4.3-8.33h-6.14v8.19a.47.47,0,0,1-.44.5H346a.47.47,0,0,1-.5-.44V45.08a.47.47,0,0,1,.44-.5h8.34c6.15,0,8.4,2.61,8.4,7.33,0,3.7-1.38,6.1-4.93,7Zm-13.6-10.94h5.87c3.11,0,5.17-.84,5.17-4.5s-2.06-4.49-5.17-4.49h-5.87Z" transform="translate(-0.01 0)"/><path class="cls-1" d="M385.46,67.93h-2.15a.55.55,0,0,1-.57-.4l-1.65-4.48H370.38l-1.65,4.48a.55.55,0,0,1-.57.4H366c-.36,0-.53-.23-.4-.56L374.09,45a.61.61,0,0,1,.6-.4h2.1a.63.63,0,0,1,.6.4l8.47,22.39C386,67.7,385.83,67.93,385.46,67.93Zm-5.39-7.64-4.33-11.8-4.34,11.8Z" transform="translate(-0.01 0)"/><path class="cls-1" d="M389.4,66a2.36,2.36,0,0,1,4.71-.31,1.6,1.6,0,0,1,0,.31,2.36,2.36,0,1,1-4.71.31A1.6,1.6,0,0,1,389.4,66Z" transform="translate(-0.01 0)"/></g></g></svg>
