<svg id="Capa_1" data-name="Capa 1" xmlns="http://www.w3.org/2000/svg" viewBox="0 0 278.82 299.49"><defs><style>.cls-1{fill:#434547;}.cls-2{fill:#bf815e;}.cls-3{fill:#dc968a;}.cls-4{fill:#c89581;}</style></defs><title>logo minimizadoRECI1</title><g id="Capa_2" data-name="Capa 2"><g id="Capa_1-2" data-name="Capa 1-2"><path class="cls-1" d="M132.94,287.4a137.14,137.14,0,0,1-94.75-42.5,139.85,139.85,0,0,1-16.48-21A136.28,136.28,0,0,1,9.56,200.08,138.92,138.92,0,0,1,88.07,20.3a141.18,141.18,0,0,1,54.22-9.73,139.4,139.4,0,0,1,125.07,92.78,137.86,137.86,0,0,1-134.42,184m0-1.14a135.84,135.84,0,0,0,26.26-1.73A131.14,131.14,0,0,0,190.84,34.69a128.16,128.16,0,0,0-24-7.72,133,133,0,0,0-25-2.9,128.82,128.82,0,0,0-49.62,7.27A131.14,131.14,0,0,0,80.47,273.47a132.21,132.21,0,0,0,26.42,9.29,135.75,135.75,0,0,0,26.09,3.5" transform="translate(-0.01 0)"/><path class="cls-2" d="M6.17,281.25a8,8,0,0,0,1.77-.72,16.18,16.18,0,0,0,1.62-.93c1-.65,2.07-1.33,3-2.06A70.41,70.41,0,0,0,18.2,273a97.4,97.4,0,0,0,9.64-9.74A105,105,0,0,0,42,242.2q2.78-5.44,5-11.15c.72-1.89,1.41-3.79,2-5.72l1-2.94c.33-1,.65-2.06,1-3.12,2.61-8.48,5.29-17.64,8.29-26.82S65.57,174,69.54,164.74a199.14,199.14,0,0,1,14-27.21,134.8,134.8,0,0,1,9.07-12.91,101.14,101.14,0,0,1,10.93-11.83,67.38,67.38,0,0,1,13.25-9.63,38,38,0,0,1,15.38-4.83,65.63,65.63,0,0,0-7.92,12.43A113,113,0,0,0,119,123.5c-3.06,8.6-5.48,17.39-7.9,26.28-4.75,17.83-9.3,36-15.23,54.56-.75,2.32-1.54,4.63-2.32,7s-1.65,4.66-2.5,7-1.8,4.7-2.74,7.08-2,4.76-3.1,7.17c-.56,1.2-1.13,2.41-1.73,3.64l-.45.91-.48,1c-.33.63-.65,1.26-1,1.89-.67,1.25-1.38,2.48-2.1,3.71s-1.5,2.43-2.28,3.62A90.45,90.45,0,0,1,66.4,260.65a77.91,77.91,0,0,1-28,18.67,63.11,63.11,0,0,1-16.07,3.84,48.94,48.94,0,0,1-8.21.11,32.71,32.71,0,0,1-4.07-.59c-.68-.15-1.34-.33-2-.54a7.34,7.34,0,0,1-1.85-.89" transform="translate(-0.01 0)"/><path class="cls-3" d="M140.38,198.77c.58-.4,1.13-.8,1.66-1.23s1.05-.84,1.56-1.29c1-.87,2-1.72,3-2.64q2.88-2.67,5.53-5.41c3.54-3.67,6.82-7.38,9.91-11.2a80.65,80.65,0,0,0,8.09-12.2,111.79,111.79,0,0,0,6.08-13.15c1.75-4.48,3.32-9,4.84-13.41l1.09-3.15,1-3.05,2.1-6.54c1.44-4.5,3-9.21,4.62-14s3.48-9.65,5.31-14.58c3.72-9.83,7.8-19.84,12.61-29.71a190.22,190.22,0,0,1,17-28.8,132.8,132.8,0,0,1,10.84-13.17,103,103,0,0,1,12.75-11.5C257.48,6.88,268,1.67,278.83,0a118.09,118.09,0,0,0-10.5,11.85,110.77,110.77,0,0,0-8.28,12.53,170.28,170.28,0,0,0-12,26.68c-3.33,9.18-6.17,18.61-8.87,28.23s-5.26,19.42-8,29.42-5.75,20.22-10.48,30.65c-1.19,2.61-2.48,5.25-4,7.9q-1.11,2-2.35,4c-.43.66-.86,1.38-1.29,2l-1.3,1.77a110.73,110.73,0,0,1-11.6,13.25,152.15,152.15,0,0,1-13.27,11.45,162,162,0,0,1-14.26,9.71,72.15,72.15,0,0,1-15.45,7.13,53.29,53.29,0,0,1-8.27,2c-1.41.2-2.82.36-4.24.42a20.16,20.16,0,0,1-4.25-.2" transform="translate(-0.01 0)"/><path class="cls-4" d="M94.3,208.83a7.26,7.26,0,0,1,1.61-.15,14.09,14.09,0,0,1,1.59.06c1,.08,2.07.19,3.1.36,2,.28,4,.73,6,1.19a84,84,0,0,1,11.07,3.56,89.13,89.13,0,0,1,18.9,10.32,102.56,102.56,0,0,1,8.1,6.44c1.28,1.14,2.55,2.3,3.78,3.5l1.87,1.84c.65.63,1.3,1.29,2,2,5.28,5.36,10.89,11.2,16.74,16.92s12,11.42,18.64,16.8a168.92,168.92,0,0,0,21.22,15,115.94,115.94,0,0,0,11.87,6.15,87.55,87.55,0,0,0,12.86,4.61,57,57,0,0,0,13.74,2.05,32.24,32.24,0,0,0,13.4-2.48A55.39,55.39,0,0,1,250,290.78a94.87,94.87,0,0,1-9-7.5c-5.71-5.28-11-10.93-16.29-16.68-10.56-11.54-21.11-23.44-32.84-35.06-1.46-1.45-3-2.88-4.47-4.33s-3.07-2.86-4.63-4.3-3.2-2.83-4.84-4.25-3.37-2.8-5.14-4.18c-.89-.69-1.8-1.37-2.73-2.06l-.69-.51-.74-.53c-.49-.34-1-.69-1.49-1-1-.68-2-1.33-3-2s-2.08-1.24-3.14-1.83a76,76,0,0,0-13.3-5.84,66.22,66.22,0,0,0-28.39-3.06,53.64,53.64,0,0,0-13.6,3.42,41.51,41.51,0,0,0-6.21,3.13,28.4,28.4,0,0,0-2.84,2c-.44.38-.88.77-1.29,1.19a6.27,6.27,0,0,0-1,1.4" transform="translate(-0.01 0)"/></g></g></svg>
